<svg xmlns="http://www.w3.org/2000/svg" viewBox="0 0 48 48" fill="none">
  <!-- Shield outline -->
  <path
    d="M24 4L8 10v10c0 9.5 6.2 18.2 16 21 9.8-2.8 16-11.5 16-21V10L24 4z"
    stroke="#3b82f6"
    stroke-width="1.5"
    stroke-linejoin="round"
    fill="none"
  />
  <!-- Inner shield line -->
  <path
    d="M24 7.5L10.5 12.8v8.7c0 8.2 5.3 15.8 13.5 18.2 8.2-2.4 13.5-10 13.5-18.2v-8.7L24 7.5z"
    stroke="#3b82f6"
    stroke-width="0.8"
    stroke-linejoin="round"
    fill="none"
    opacity="0.7"
  />
  <!-- Open padlock -->
  <path
    d="M18 22v-3a6 6 0 1 1 12 0v3"
    stroke="#fff"
    stroke-width="1.2"
    stroke-linecap="round"
    fill="none"
  />
  <rect
    x="16"
    y="22"
    width="16"
    height="12"
    rx="2"
    stroke="#fff"
    stroke-width="1.2"
    fill="none"
  />
  <!-- Keyhole -->
  <circle cx="24" cy="27" r="1.8" fill="#fff" />
  <path
    d="M24 29.2v3.5"
    stroke="#fff"
    stroke-width="1"
    stroke-linecap="round"
  />
</svg>
